<?xml version="1.0" encoding="UTF-8" standalone="no"?>
<svg
   id="_Слой_1"
   data-name="Слой 1"
   version="1.1"
   viewBox="0 0 512 512"
   sodipodi:docname="Way.svg"
   inkscape:version="1.3.2 (091e20e, 2023-11-25, custom)"
   xmlns:inkscape="http://www.inkscape.org/namespaces/inkscape"
   xmlns:sodipodi="http://sodipodi.sourceforge.net/DTD/sodipodi-0.dtd"
   xmlns="http://www.w3.org/2000/svg"
   xmlns:svg="http://www.w3.org/2000/svg">
  <sodipodi:namedview
     id="namedview2"
     pagecolor="#ffffff"
     bordercolor="#000000"
     borderopacity="0.25"
     inkscape:showpageshadow="2"
     inkscape:pageopacity="0.0"
     inkscape:pagecheckerboard="0"
     inkscape:deskcolor="#d1d1d1"
     inkscape:zoom="2.2910156"
     inkscape:cx="255.78176"
     inkscape:cy="256"
     inkscape:window-width="3440"
     inkscape:window-height="1369"
     inkscape:window-x="-8"
     inkscape:window-y="-8"
     inkscape:window-maximized="1"
     inkscape:current-layer="_Слой_1" />
  <defs
     id="defs1">
    <style
       id="style1">
      .cls-1 {
        fill: #000;
      }

      .cls-1, .cls-2 {
        stroke-width: 0px;
      }

      .cls-2 {
        fill: #fff;
      }
    </style>
  </defs>
  <path
     class="cls-2"
     d="M374,102.4c5.6-3.1,11.4-6.3,17.1-9.4,12-6.6,24-13.3,36-19.9,3.3-1.8,3.7-2.9,2.4-6.5-.8-2.2-1.7-4.3-2.5-6.5-1.7-4.6-.3-8.3,4-10.6,2.4-1.2,4.7-2.4,7.4-3.8,9,13,17.9,26,27,39.3-24.1,12.5-48.2,25-72.4,37.6,11.8,14.1,21.5,29.2,29.5,45.8,21.8-11.9,43.4-23.8,65.3-35.7,5.9,14.9,11.7,29.5,17.6,44.4-3.3,1.8-6.3,3.6-9.5,5.1-2.4,1.1-6.5-.7-8.5-3.4-2-2.6-4-5.3-6.1-7.9-1.1-1.3-2.3-1.4-3.9-.5-14.2,7.4-28.5,14.7-42.8,22-1.6.8-1.8,1.6-1.3,3.3,8.5,26.6,11.8,53.9,9.5,81.7-4.8,57.5-28.6,105.8-71.4,144.5-28.8,26-62.4,43.2-100.6,50.5-65.8,12.6-125.6-1.6-178.1-43.3-40.6-32.3-66.5-74.4-76.2-125.4-13.2-69.3,3.3-131.4,49.5-184.8,32.3-37.4,73.3-60.8,122-69.5,66.4-11.8,126.1,4,178.4,46.8,2.4,2,4.8,4.1,7.2,6.2,0,0,.2,0,.4.2ZM115.5,124.2c0,.2.1.5.2.7,6.6,1.8,13.1,3.7,19.7,5.4,15.6,4.2,30,10.5,42.4,21.3,10,8.7,18.4,18.6,25,29.9,9.5,16.4,18.6,33.2,27.4,50,10.5,19.9,20.3,40.2,33,58.9,9.5,14.1,20.4,26.8,35,36,12.1,7.6,25.4,11.4,39,14.5,13.2,3,26.4,6,39.5,9.4,2.7.7,3.9.3,5.2-2.1,25.9-47.6,30.1-97.1,11.9-148.1-27.2-76.2-105.4-124.2-185.7-114.9-29.7,3.5-56.9,13.5-81.5,30.6-3.8,2.6-7.4,5.5-11.1,8.3ZM150.2,385c0,10.8,4.8,23.4,14.3,34,5.9,6.5,12.5,12.2,21.5,14,5.3,1.1,10.6,2.3,15.9,3,4.8.6,9.9,1.5,14.6.7,12.9-2.1,23.6-8.4,32.3-18.6,8-9.2,12.5-19.6,13.6-31.4,2.9-30.9-19.8-58.3-50.6-61.3-32.9-3.2-61.6,22.8-61.7,59.5ZM139.5,287.9c0-22.2-18.1-40.1-40.3-40-22.1.1-39.9,18-39.9,40.1,0,22.2,18,40.1,40.2,40.1,22.2,0,40.1-18.1,40-40.2Z"
     id="path1" />
  <path
     class="cls-2"
     d="M282.1,159.8c18.5,0,33.4,15,33.4,33.5,0,18.5-15.1,33.4-33.6,33.3-18.3,0-33.3-15-33.3-33.4,0-18.5,15-33.5,33.5-33.5Z"
     id="path2" />
</svg>
