<?xml version="1.0" encoding="UTF-8"?>
<svg id="_Слой_1" data-name=" Слой 1" xmlns="http://www.w3.org/2000/svg" version="1.1" viewBox="0 0 512 512">
  <defs>
    <style>
      .cls-1 {
        fill: none;
        stroke: #fff;
        stroke-linecap: round;
        stroke-linejoin: round;
        stroke-width: 32px;
      }

      .cls-2 {
        fill: #fff;
        stroke-width: 0px;
      }
    </style>
  </defs>
  <rect class="cls-1" x="112" y="48" width="288" height="416" rx="32" ry="32"/>
  <path class="cls-1" d="M160,112h192v64h-192v-64Z"/>
  <circle class="cls-2" cx="168" cy="248" r="24"/>
  <circle class="cls-2" cx="256" cy="248" r="24"/>
  <circle class="cls-2" cx="344" cy="248" r="24"/>
  <circle class="cls-2" cx="168" cy="328" r="24"/>
  <circle class="cls-2" cx="256" cy="328" r="24"/>
  <circle class="cls-2" cx="168" cy="408" r="24"/>
  <circle class="cls-2" cx="256" cy="408" r="24"/>
  <path class="cls-2" d="M344,304h0c13.3,0,24,10.7,24,24v80c0,13.3-10.7,24-24,24h0c-13.3,0-24-10.7-24-24v-80c0-13.3,10.7-24,24-24Z"/>
</svg>