<?xml version="1.0" encoding="UTF-8"?>
<svg id="Layer_1" data-name="Layer 1" xmlns="http://www.w3.org/2000/svg" version="1.1" viewBox="0 0 511 187">
  <defs>
    <style>
      .cls-1 {
        fill: #fff;
        stroke-width: 0px;
      }
    </style>
  </defs>
  <path class="cls-1" d="M444.5,116.3v-50.8c0-33.4-27.1-60.5-60.5-60.5s-60.5,27.1-60.5,60.5v61c0,33.4,27.1,60.5,60.5,60.5s37.1-9.4,48.1-23.9c.2,1.3.4,2.6.4,3.9,0,11,9,20,20,20s20-9,20-20c0-21.3-11.2-40.1-28-50.7ZM404.5,108.7c-7.1,3.1-12,10.1-12,18.3s2.2,10.5,5.8,14.1c-3.7,3.6-8.8,5.9-14.3,5.9-11.3,0-20.5-9.2-20.5-20.5v-61c0-11.3,9.2-20.5,20.5-20.5s20.5,9.2,20.5,20.5v43.2Z"/>
  <path class="cls-1" d="M136.5,5h-47.9c-27.6,0-50,22.4-50,50v112c0,11,9,20,20,20s20-9,20-20v-51h37.9c11,0,20-9,20-20s-9-20-20-20h-37.9v-21c0-5.5,4.5-10,10-10h47.9c11,0,20-9,20-20s-9-20-20-20Z"/>
  <path class="cls-1" d="M234.5,5c-35.8,0-65,29.2-65,65v97c0,11,9,20,20,20s20-9,20-20v-28h50v28c0,11,9,20,20,20s20-9,20-20v-97c0-35.8-29.2-65-65-65ZM259.5,99h-50v-29c0-13.8,11.2-25,25-25s25,11.2,25,25v29Z"/>
</svg>