<?xml version="1.0" encoding="UTF-8" standalone="no"?>
<svg
   id="_Слой_1"
   data-name="Слой 1"
   version="1.1"
   viewBox="0 0 451.4 451.4"
   xmlns="http://www.w3.org/2000/svg"
   xmlns:svg="http://www.w3.org/2000/svg">
  <defs>
    <style>
      .cls-1 {
        fill: #3a3a3a;
      }

      .cls-1, .cls-2, .cls-3, .cls-4 {
        stroke-width: 0px;
      }

      .cls-2 {
        fill: #383838;
      }

      .cls-3 {
        display: none;
        fill: #000;
      }

      .cls-4 {
        fill: #fff;
      }
    </style>
  </defs>
  <rect
     class="cls-3"
     width="451.4"
     height="451.4"
     id="rect6" />
  <path
     class="cls-1"
     d="M362.8,364.6c-65.8,62.5-175.8,65.9-246.2-4-70.8-70.4-69.1-183.1-2-250.9,75.3-76.1,186.1-64.3,245.7-8.1-40-31-85.1-43.9-135.2-36-50.1,7.9-89.4,33.8-116.9,76.3-43.6,67.3-33.7,157.1,22.8,213,31.6,31.2,69.7,48.1,114.1,50,44.2,1.8,83.3-12.4,117.6-40.2Z"
     id="path8"
     style="fill:#000000" />
  <path
     class="cls-2"
     d="M159,134c47.8-44.2,130.9-50,185.8,6.7,56,57.9,48.6,145.7-8.8,195.2-56.9,49.1-135.2,38.3-176.9-1.8,31.3,24.5,66.5,33.8,105.5,26.7,31.5-5.7,57.3-21.6,77.2-46.7,39.6-49.7,36.8-120.6-6.2-167.3-43.6-47.4-119.6-58-176.5-12.9Z"
     id="path10"
     style="fill:#000000" />
  <path
     class="cls-4"
     d="M356.3,351c-65.8,62.5-175.8,65.9-246.2-4-70.8-70.4-69.1-183.1-2-250.9,75.3-76.1,186.1-64.3,245.7-8.1-40-31-85.1-43.9-135.2-36-50.1,7.9-89.4,33.8-116.9,76.3-43.6,67.3-33.7,157.1,22.8,213,31.6,31.2,69.7,48.1,114.1,50,44.2,1.8,83.3-12.4,117.6-40.2Z"
     id="path12" />
  <path
     class="cls-4"
     d="M148.7,120.3c47.8-44.2,130.9-50,185.8,6.7,56,57.9,48.6,145.7-8.8,195.2-56.9,49.1-135.2,38.3-176.9-1.8,31.3,24.5,66.5,33.8,105.5,26.7,31.5-5.7,57.3-21.6,77.2-46.7,39.6-49.7,36.8-120.6-6.2-167.3-43.6-47.4-119.6-58-176.5-12.9Z"
     id="path14" />
  <path
     class="cls-4"
     d="M178.9,192.7c15.6.2,27.9,12.9,27.7,28.5-.2,15.3-12.9,27.7-28.4,27.5-15.5-.2-27.8-13-27.6-28.7.2-15.1,13-27.5,28.3-27.3Z"
     id="path16"
     style="fill:#ffffff" />
  <path
     class="cls-4"
     d="M294.2,192.7c15.6.1,28,12.8,27.9,28.4-.1,15.3-12.8,27.7-28.3,27.6-15.5-.1-27.9-12.9-27.7-28.6.2-15.1,12.9-27.6,28.1-27.4Z"
     id="path18"
     style="fill:#ffffff" />
</svg>
