<?xml version="1.0" encoding="utf-8"?>
<!-- Generator: Adobe Illustrator 26.5.0, SVG Export Plug-In . SVG Version: 6.00 Build 0)  -->
<svg version="1.1" id="_Слой_1" xmlns:svg="http://www.w3.org/2000/svg"
	 xmlns="http://www.w3.org/2000/svg" xmlns:xlink="http://www.w3.org/1999/xlink" x="0px" y="0px" viewBox="0 0 747.3 216.3"
	 style="enable-background:new 0 0 747.3 216.3;" xml:space="preserve">
<style type="text/css">
	.st0{display:none;}
	.st1{fill:#FFFFFF;}
</style>
<rect id="rect6" class="st0" width="747.3" height="216.3"/>
<g>
	<path class="st1" d="M135.5,38.9l31.9,25.5v28.1L135.5,118h-67v59.3H43.8V38.9H135.5z M68.5,98.3h56.6l17.6-14V72.7l-17.6-14H68.5
		V98.3z"/>
	<path class="st1" d="M214.9,38.9v25.5L252,94.1l37.1-29.7V38.9h24.7v33.8l-49.5,39.6v65.1h-24.7v-65.1l-49.5-39.6V38.9H214.9z"/>
	<path class="st1" d="M361.3,38.9v25.5l37.1,29.7l37.1-29.7V38.9h24.7v33.8l-44.3,35.4l44.3,35.4v33.8h-24.7v-25.5l-37.1-29.7
		l-37.1,29.7v25.5h-24.7v-33.8l44.3-35.4l-44.3-35.4V38.9H361.3z"/>
	<path class="st1" d="M483,38.9h74.2v19.8h-24.7v98.9h24.7v19.8H483v-19.8h24.7V58.7H483V38.9z"/>
	<path class="st1" d="M611.8,38.9h59.8l31.9,25.5v14H686l-24.7-19.8h-39.1l-17.6,14v11.5l17.6,14h49.5l31.9,25.5v28.1l-31.9,25.5
		h-59.8l-31.9-25.5v-14h17.6l24.7,19.8h39.1l17.6-14v-11.5l-17.6-14h-49.5l-31.9-25.5V64.4L611.8,38.9z"/>
</g>
</svg>
