<?xml version="1.0" encoding="utf-8"?>
<!-- Generator: Adobe Illustrator 26.5.0, SVG Export Plug-In . SVG Version: 6.00 Build 0)  -->
<svg version="1.1" id="_Слой_1" xmlns:svg="http://www.w3.org/2000/svg"
	 xmlns="http://www.w3.org/2000/svg" xmlns:xlink="http://www.w3.org/1999/xlink" x="0px" y="0px" viewBox="0 0 747.3 216.3"
	 style="enable-background:new 0 0 747.3 216.3;" xml:space="preserve">
<style type="text/css">
	.st0{display:none;}
	.st1{fill:#FFFFFF;}
</style>
<rect id="rect6" class="st0" width="747.3" height="216.3"/>
<g>
	<path class="st1" d="M45.4,24.1h60c47.8,0,71.8,18.4,71.8,55.2c0,36.8-23.9,55.2-71.8,55.2H72.7v57.6H45.4V24.1z M137.9,103
		c7.6-4.4,11.4-12.3,11.4-23.6c0-11.4-3.8-19.2-11.4-23.6c-7.6-4.4-18-6.6-31.1-6.6H72.7v60.5h34.1
		C119.9,109.6,130.3,107.4,137.9,103z"/>
	<path class="st1" d="M272.4,192.1H245v-61.7L179.3,24.1H210l48.7,81.4l49-81.4h30.7l-66,106.3V192.1z"/>
	<path class="st1" d="M372,192.1h-32.4l62.6-86.6l-59-81.4h32.4l43.7,60.7L463,24.1h32.4l-59.3,81.4l62.9,86.6h-32.4l-47.3-66.2
		L372,192.1z"/>
	<path class="st1" d="M518.9,24.1h27.4v168h-27.4V24.1z"/>
	<path class="st1" d="M578.1,66.9c0-14.7,5.6-26,16.9-34C606.3,25,620.4,21,637.2,21c20.3,0,37.8,4.2,52.6,12.7v26.2
		c-14.2-9.6-31-14.2-50.4-13.9c-22.2,0-33.4,6.8-33.4,20.4c0,6.6,3.3,12,9.8,16.4c6.6,4.4,14.6,8,24,10.9c9.4,2.9,18.9,6.2,28.3,9.8
		c9.4,3.7,17.4,9.2,24,16.7c6.6,7.4,9.8,16.7,9.8,27.7c0,16.5-6,28.5-17.9,36.1c-11.9,7.6-27.2,11.3-45.7,11.2
		c-22.4,0-42.2-4.9-59.5-14.6v-26.9c17.1,11,36.3,16.6,57.6,16.6c25.1,0,37.7-7,37.7-20.9c0-6.1-2.4-11.3-7.1-15.6
		c-4.7-4.3-10.6-7.6-17.8-9.8c-7.1-2.2-14.8-4.9-23.2-8c-8.3-3.1-16-6.4-23.2-9.8c-7.1-3.4-13-8.5-17.8-15.2
		C580.5,84.1,578.1,76.1,578.1,66.9z"/>
</g>
</svg>
