<?xml version="1.0" encoding="UTF-8"?>
<svg id="_Слой_1" data-name="Слой 1" xmlns="http://www.w3.org/2000/svg" version="1.1" viewBox="0 0 800 800">
  <defs>
    <style>
      .cls-1 {
        fill: #fff;
        fill-rule: evenodd;
        stroke-width: 0px;
      }
    </style>
  </defs>
  <path class="cls-1" d="M733.3,400c0,184.1-149.2,333.3-333.3,333.3S66.7,584.1,66.7,400,215.9,66.7,400,66.7s333.3,149.2,333.3,333.3ZM411.9,312.7c-32.4,13.5-97.2,41.4-194.4,83.7-15.8,6.3-24,12.4-24.8,18.4-1.3,10.1,11.4,14.1,28.7,19.6,2.4.7,4.8,1.5,7.3,2.3,17,5.5,39.9,12,51.8,12.3,10.8.2,22.8-4.2,36.1-13.4,90.8-61.3,137.7-92.3,140.6-92.9,2.1-.5,5-1.1,6.9.7,1.9,1.7,1.8,5,1.5,5.9-1.3,5.4-51.1,51.7-76.9,75.7-8,7.5-13.8,12.8-14.9,14-2.6,2.7-5.3,5.3-7.8,7.7-15.8,15.2-27.7,26.7.7,45.3,13.6,9,24.5,16.4,35.4,23.8,11.9,8.1,23.7,16.1,39,26.2,3.9,2.6,7.6,5.2,11.3,7.8,13.8,9.8,26.2,18.7,41.5,17.3,8.9-.8,18.1-9.2,22.8-34.2,11-59,32.7-186.9,37.8-239.6.4-4.6-.1-10.5-.6-13.1-.4-2.6-1.4-6.3-4.7-9-4-3.2-10.2-3.9-12.9-3.9-12.5.2-31.8,6.9-124.3,45.4Z"/>
</svg>