<?xml version="1.0" encoding="UTF-8"?>
<svg id="_Слой_1" data-name="Слой 1" xmlns="http://www.w3.org/2000/svg" version="1.1" viewBox="0 0 830 600">
  <defs>
    <style>
      .cls-1 {
        fill: #fff;
        stroke-width: 0px;
      }
    </style>
  </defs>
  <path class="cls-1" d="M264.9,83.6c-60.7,40.5-110.4,74.2-110.3,74.8s19.7,27.3,43.8,59.2c24,32,43.6,58.7,43.6,59.5s-4.9,7.7-10.8,15.4c-10.3,13.3-23.8,31.1-96.8,127-17.6,23.1-48,62.9-67.5,88.5-52.2,68.4-62.3,82-61.5,82.8,1.1,1,365.8,1.4,367.4.4.7-.5,3.3-9.8,5.8-20.8,7.9-34.7,24.6-108.3,42.3-186.4,2.8-12.4,7.3-32.4,10.1-44.5,5-21.9,19-84.4,19-84.9s-7.1-6.9-15.7-15.1c-8.7-8.1-22.1-20.9-29.8-28.4s-24.8-24-38-36.6-29.5-28.2-36.2-34.7l-12.2-11.8,14.8-30.3c8.2-16.6,20.1-40.8,26.6-53.7,11.6-23.2,16.7-34,16.1-34s-50,33.1-110.7,73.6ZM497.7,69.3c-.8,1.3-11,21.3-22.6,44.5l-21,42,41.7,37.5c51.9,46.6,51.1,45.9,53.3,47.5,1.1.7,1.9,2,1.9,2.8,0,1.4-8.2,28.3-28,91.9-16.2,51.9-17.7,57-17.1,57.8.4.4,25.7.6,56.2.5l55.4-.3-.2-19c-.2-10.5-.5-50.3-.9-88.6l-.6-69.7-27.7-19.8c-15.2-11-39.7-28.6-54.6-39.3-14.8-10.7-28.7-20.7-30.8-22.3l-3.8-3,.3-32.4c.2-17.8.2-32.4.2-32.4-.1,0-.9,1.1-1.7,2.3ZM661.4,244.6c.3,1.6,2.6,14.6,5.1,28.9,2.4,14.3,4.9,28.7,5.5,32q1.1,6,21.6,21.4l20.4,15.4v62.2l-15.1,26c-8.4,14.3-24.4,41.7-35.6,60.9s-20.2,35-20,35.2c.2.3,136.9.6,179.4.4h4.1l-7.9-31.3c-4.4-17.1-12.7-49.9-18.5-72.7s-12.5-49.4-15-59c-2.4-9.6-4.8-18.5-5.4-19.7-.5-1.2-11.8-11.5-25.2-22.9s-30.1-25.8-37.3-31.9c-36.9-31.5-53-45.1-54.7-46.4-1.9-1.3-2-1.2-1.4,1.5Z"/>
</svg>