<?xml version="1.0" encoding="UTF-8" standalone="no"?>
<svg
   id="_Слой_1"
   data-name="Слой 1"
   viewBox="0 0 1600 1690"
   version="1.1"
   sodipodi:docname="ns.svg"
   inkscape:version="1.3.2 (091e20e, 2023-11-25, custom)"
   xmlns:inkscape="http://www.inkscape.org/namespaces/inkscape"
   xmlns:sodipodi="http://sodipodi.sourceforge.net/DTD/sodipodi-0.dtd"
   xmlns="http://www.w3.org/2000/svg"
   xmlns:svg="http://www.w3.org/2000/svg">
  <sodipodi:namedview
     id="namedview1"
     pagecolor="#ffffff"
     bordercolor="#000000"
     borderopacity="0.25"
     inkscape:showpageshadow="2"
     inkscape:pageopacity="0.0"
     inkscape:pagecheckerboard="0"
     inkscape:deskcolor="#d1d1d1"
     inkscape:zoom="0.69408284"
     inkscape:cx="799.61637"
     inkscape:cy="845"
     inkscape:window-width="3440"
     inkscape:window-height="1369"
     inkscape:window-x="-8"
     inkscape:window-y="-8"
     inkscape:window-maximized="1"
     inkscape:current-layer="_Слой_1" />
  <defs
     id="defs1">
    <style
       id="style1">
      .cls-1 {
        fill: #fff;
        stroke-width: 0px;
      }
    </style>
  </defs>
  <path
     class="cls-1"
     d="m 1593.6803,809.05067 c -4.3379,1.35959 -8.5285,3.39897 -12.9844,4.00324 -37.8322,5.0355 -75.7529,9.56747 -113.5849,14.72888 -16.9389,2.31632 -33.5531,6.19367 -50.4919,8.48482 -71.7099,9.79407 -143.4788,19.46226 -215.3066,28.70243 -12.6599,1.61136 -25.7919,1.73724 -38.5994,0.98193 -30.0414,-1.7876 -42.7012,-21.72825 -54.6824,-41.03943 -17.175,-27.69532 -33.0809,-55.96973 -49.3706,-84.06788 -13.6632,-23.59137 -27.1199,-47.25829 -40.6946,-70.90002 -1.7411,-3.0213 -3.0985,-6.26921 -5.4004,-8.93804 -6.9054,-8.03164 -12.98445,-17.02003 -27.50346,-16.01291 -13.63374,0.93155 -17.49956,10.44867 -21.42442,18.45513 -14.04687,28.57654 -26.88381,57.58109 -40.25195,86.4094 -26.88379,58.03429 -54.21026,115.94267 -80.6514,174.1532 -32.28417,71.05108 -63.77158,142.35398 -95.81967,213.45538 -10.91878,24.2208 -21.6605,48.5423 -33.96626,72.2596 -20.68666,39.9317 -63.59453,45.7225 -101.60367,28.8535 -11.95164,-5.3125 -22.92943,-16.8186 -28.2708,-27.645 -30.98571,-62.9439 -59.81719,-126.6432 -90.06517,-189.864 -20.95224,-43.78377 -42.96686,-87.21505 -64.50933,-130.79741 -5.90203,-11.93416 -12.89596,-23.56621 -17.49956,-35.85284 -9.35473,-24.85026 -31.75298,-35.92839 -59.02043,-39.7302 -55.15459,-7.70433 -110.66329,-13.6966 -166.02446,-20.49454 -51.96749,-6.36992 -103.934979,-12.73984 -155.843447,-19.36154 -6.639799,-0.85605 -12.984495,-3.27309 -20.7161711,-8.43448 4.5445731,-1.81279 8.9120841,-4.75856 13.6337191,-5.31247 48.662345,-5.4887 97.413229,-10.42352 146.105069,-15.83669 79.79564,-8.8625 159.50271,-18.25373 239.35736,-26.73858 17.44054,-1.86313 35.47128,-2.06455 52.97083,-0.70496 29.42169,2.29116 43.05541,21.07361 53.62007,41.71922 22.16217,43.33059 44.14727,86.7367 66.10288,130.168 8.14483,16.13881 14.93216,32.8567 24.37544,48.39127 3.74779,6.14333 12.18771,11.73275 19.97841,14.20014 9.82691,3.12202 18.2078,-2.21562 22.36875,-10.37315 13.33861,-26.13431 26.9133,-52.16791 39.24858,-78.62953 25.4083,-54.45906 49.6952,-109.2958 75.133,-163.75486 29.27414,-62.64177 59.34505,-125.00659 88.91429,-187.54766 16.31915,-34.54362 32.78584,-69.03688 48.30822,-103.85745 8.676,-19.46225 25.29024,-31.7489 46.44908,-39.6043 8.02678,-2.99614 18.70947,-3.72629 27.32645,-2.14009 27.50355,5.06069 48.83945,16.91932 60.85005,40.53587 34.4385,67.62693 70.1753,134.75031 105.263,202.12546 17.9421,34.41774 34.7334,69.28866 53.7381,103.25319 11.4204,20.36865 20.5096,43.55717 50.5804,50.80832 8.44,2.03939 16.9389,4.25501 25.5854,5.28729 63.0929,7.57845 126.1858,15.15688 189.367,22.20662 36.032,4.00322 72.2116,6.87347 108.3025,10.52421 8.9122,0.9064 17.7062,2.79472 26.5593,4.25502 l 0.1175,3.70109 z"
     id="path1" />
</svg>
