<?xml version="1.0" encoding="UTF-8"?>
<svg id="_Слой_1" data-name="Слой 1" xmlns="http://www.w3.org/2000/svg" viewBox="0 0 1600 1690">
  <defs>
    <style>
      .cls-1 {
        fill: #fff;
        stroke-width: 0px;
      }
    </style>
  </defs>
  <path class="cls-1" d="M320.73,1025c3.85-5.24,6.78-9.35,9.83-13.36,42.09-55.43,84.14-110.88,126.31-166.25,35.92-47.16,71.98-94.2,107.96-141.31,10.31-13.5,20.5-27.08,30.9-40.51,2.29-2.95,2.56-5.04.16-8.22-32.3-42.78-64.45-85.68-96.65-128.54-4.41-5.87-4.36-5.93,1.95-10.14,59.55-39.73,119.08-79.48,178.61-119.22,23.39-15.62,46.78-31.26,70.18-46.87,1.01-.68,2.17-1.13,4.5-2.32-.74,2.44-.93,3.66-1.45,4.72-17.11,34.76-34.26,69.51-51.4,104.25-4.05,8.2-8.06,16.42-12.22,24.57-1.5,2.93-1.3,5.03,1.24,7.45,26.99,25.78,53.87,51.67,80.78,77.52,21.99,21.12,43.95,42.26,66.03,63.27,2.55,2.43,3.05,4.93,2.33,8.06-5.09,22.38-10.17,44.77-15.25,67.15-4.01,17.69-8.02,35.38-12.01,53.07-.18.78-.11,1.61-.21,3.25,1.84,0,3.39.02,4.94,0,14.58-.23,20.54,3.62,26.23,16.81,7.57,17.55,15.23,35.06,22.79,52.62,2.7,6.26,4.85,12.78,8.02,18.78,1.26,2.39,4.44,4.85,7,5.15,2.21.26,5.99-1.91,6.98-4,5-10.51,9.51-21.26,13.83-32.08,8.7-21.77,17.07-43.68,25.77-65.45,9.5-23.79,19.24-47.49,28.81-71.25,5.9-14.65,11.57-29.39,17.53-44.01,3.82-9.37,10.93-15.72,20.99-15.88,10.55-.18,19.13,4.95,23.69,15.18,5.49,12.31,10.92,24.65,16.4,36.96,6.76,15.2,13.56,30.38,20.31,45.59,5.86,13.22,11.35,26.61,17.64,39.62,3.89,8.05,6.82,17.38,17.06,20.24,3.02.84,6.06,1.73,9.15,2.18,12.65,1.82,25.33,3.5,38,5.19,1.81.24,3.77.73,5.44.29,1.29-.34,3.19-1.95,3.21-3.02.21-15.5.26-31,0-46.49-.03-1.71-1.84-3.83-3.39-5.02-13.38-10.19-27-20.07-40.25-30.42-2.3-1.8-4.09-5.18-4.66-8.11-3.79-19.61-7.2-39.3-10.7-58.97-.98-5.5-1.83-11.03-2.98-18.02,2.54,1.68,4.05,2.46,5.31,3.53,28.76,24.55,57.48,49.15,86.23,73.7,12.54,10.71,24.78,21.81,37.84,31.84,8.12,6.23,11.94,13.9,14.18,23.53,5.45,23.5,11.63,46.82,17.55,70.21,4.78,18.87,9.62,37.72,14.41,56.59,5.81,22.9,11.49,45.83,17.45,68.69,1.12,4.32-.27,5.22-4.21,5.21-68.5-.06-137-.04-205.5-.06-1.12,0-2.25-.24-4.69-.52,27.16-46.61,53.94-92.57,81.39-139.69-6.72.62-12.16.83-17.5,1.66-16.77,2.62-33.49,5.57-50.25,8.19-4.15.65-8.47,1.05-12.62.66-11.26-1.07-15.75-9.66-20.06-18.58-5.2-10.76-10.96-21.26-16.33-31.94-4.55-9.04-8.88-18.19-13.32-27.28-.8-1.64-1.49-3.38-2.53-4.87-5.37-7.7-12.07-7.39-15.66,1.27-7.39,17.83-14.22,35.89-21.28,53.86-6.2,15.79-12.42,31.58-18.59,47.38-5.33,13.63-10.6,27.29-15.91,40.93-8.57,21.99-17.08,44.01-25.78,65.95-2.07,5.21-4.39,10.4-7.26,15.2-4.63,7.74-12.15,9.72-20.67,9.07-10.04-.76-16.62-6.21-20.34-15.25-8.29-20.15-16.42-40.38-24.64-60.56-10.1-24.79-20.16-49.6-30.4-74.33-2.08-5.03-4.86-9.78-7.32-14.66-.63.13-1.26.27-1.89.4-.97,3.57-2.07,7.1-2.89,10.7-5.72,25.32-11.32,50.67-17.07,75.98-5.05,22.23-10.28,44.42-15.34,66.65-4.21,18.49-8.4,36.99-12.38,55.54-1.82,8.5-1.59,8.55-10.06,8.55-138.5,0-276.99,0-415.49,0h-7.78Z"/>
</svg>