<?xml version="1.0" encoding="utf-8"?>
<!-- Generator: Adobe Illustrator 26.5.0, SVG Export Plug-In . SVG Version: 6.00 Build 0)  -->
<svg version="1.1"
	 id="_Слой_1" xmlns:sodipodi="http://sodipodi.sourceforge.net/DTD/sodipodi-0.dtd" xmlns:inkscape="http://www.inkscape.org/namespaces/inkscape" xmlns:svg="http://www.w3.org/2000/svg"
	 xmlns="http://www.w3.org/2000/svg" xmlns:xlink="http://www.w3.org/1999/xlink" x="0px" y="0px" viewBox="0 0 287 287"
	 style="enable-background:new 0 0 287 287;" xml:space="preserve">
<style type="text/css">
	.st0{fill:#FFFFFF;}
</style>
<path class="st0" d="M279.6,142.9c0,76.6-61.8,138.7-138,138.7S9.4,216.3,4.5,139.3C4.5,63,66.2,4.1,137.4,4.1
	C214,4.1,279.6,74,279.6,142.9z"/>
<path id="path1" d="M233.6,245.9c-49.3,46.9-131.8,49.4-184.6-3C-4.1,190.1-2.8,105.6,47.5,54.7C104-2.4,187,6.5,231.7,48.6
	c-30-23.2-63.8-32.9-101.4-27s-67,25.3-87.7,57.2C9.9,129.2,17.4,196.6,59.7,238.5c23.7,23.4,52.3,36.1,85.5,37.5
	c33.1,1.4,62.5-9.3,88.2-30.2L233.6,245.9L233.6,245.9z"/>
<path id="path2" d="M80.7,72.9c35.9-33.2,98.2-37.5,139.3,5c42,43.4,36.4,109.3-6.6,146.4c-42.7,36.9-101.4,28.8-132.6-1.4
	c23.4,18.4,49.9,25.3,79.1,20c23.6-4.3,43-16.2,57.9-35c29.7-37.3,27.6-90.4-4.6-125.4C180.5,47,123.5,39,80.8,72.8l0,0L80.7,72.9z"
	/>
<path id="path3" d="M228.7,235.6c-49.3,46.9-131.8,49.4-184.6-3C-9,179.8-7.7,95.3,42.6,44.4c56.5-57.1,139.5-48.2,184.2-6.1
	c-30-23.2-63.8-32.9-101.4-27s-67,25.3-87.7,57.2C5,118.9,12.5,186.3,54.8,228.3c23.7,23.4,52.3,36.1,85.5,37.5
	c33.1,1.4,62.5-9.3,88.2-30.2L228.7,235.6L228.7,235.6z"/>
<path id="path4" d="M73,62.7c35.9-33.2,98.2-37.5,139.3,5c42,43.4,36.4,109.2-6.6,146.4C163,251,104.3,242.9,73.1,212.7
	c23.4,18.4,49.9,25.3,79.1,20c23.6-4.3,43-16.2,57.9-35c29.7-37.3,27.6-90.4-4.6-125.4c-32.7-35.5-89.7-43.5-132.4-9.7l0,0L73,62.7z
	"/>
<path id="path5" d="M95.7,117c11.7,0.1,21,9.7,20.8,21.4c-0.1,11.5-9.7,20.7-21.3,20.6c-11.6-0.1-20.9-9.7-20.7-21.5
	C74.7,126.2,84.3,116.9,95.7,117L95.7,117z"/>
<path id="path6" d="M182.1,117c11.7,0,21,9.6,20.9,21.3c-0.1,11.5-9.6,20.8-21.2,20.7c-11.6,0-20.9-9.7-20.8-21.4
	C161.1,126.2,170.7,116.9,182.1,117L182.1,117z"/>
</svg>
